<svg xmlns="http://www.w3.org/2000/svg" viewBox="0 0 171.41 163.8"><defs><style>.cls-1{fill:none;stroke:#ffc20e;stroke-linecap:round;stroke-linejoin:round;stroke-width:3px;}</style></defs><title>Asset 1</title><g id="Layer_2" data-name="Layer 2"><g id="naam_g" data-name="naam g"><path class="cls-1" d="M76.19,64.78C69.71,66.28,59,72.07,45.55,84.53c-18,16.7-31.82,35-39.42,50.54C.07,147.44.52,158.32,4.25,161.31c3.92,3.15,15.4-1.76,20.68-7a122,122,0,0,0,23-30.79C58.78,103.37,65,79.11,66.27,73.14A273.62,273.62,0,0,0,70.78,33.9C71,24.64,71,13.51,64.62,6.76c-4.41-4.7-10.26-5.52-14.71-5.2-3.62.27-7.93,2-13,5.77a55.52,55.52,0,0,0-11.57,11.8"/><path class="cls-1" d="M82.55,55.05a74.82,74.82,0,0,0-6.57,12c-1.22,3.1-3.5,8.21-2.19,10.83,1.91,3.84,7.44-.66,10-5a92.2,92.2,0,0,0,5-10.15c1.18-2.85,5-11,2.85-13.8C88.92,45.39,84.59,52,82.55,55.05Z"/><path class="cls-1" d="M89.8,60.53a37.44,37.44,0,0,1,5.52-9.47,9.4,9.4,0,0,1,3.38-3,3.9,3.9,0,0,1,4.25.49c1.08,1.06,1.19,2.74,1.17,4.26a72.13,72.13,0,0,1-5,25.59c2.12-6.24,3.89-11.37,6.16-16.93a5.18,5.18,0,0,1,4.2-3.4c1.8-.08,3.31,1.55,3.78,3.3a14.38,14.38,0,0,1,0,5.39c-.38,3.21-.26,6.92,2.14,9.09,3.25,2.94,8.5,1.25,12.11-1.25A36.66,36.66,0,0,0,135,67.79"/><path class="cls-1" d="M139.08,56.07a28.57,28.57,0,0,0-2.79,7.49,35.81,35.81,0,0,0-1.09,7.32c-.08,2.92.36,4.5,1.27,6a2.88,2.88,0,0,0,2.95,1.52,4.09,4.09,0,0,0,3.43-2.09"/><path class="cls-1" d="M145,68.49c2.71.19,6.22-.48,7.95-1.61a9.92,9.92,0,0,0,4-4.63c.84-2,.81-4.08-.15-5.3a3.28,3.28,0,0,0-4.66-.45c-2.43,1.69-3.6,3.6-4.94,6.11-.88,1.66-1.63,3.38-2.45,5.07a16.74,16.74,0,0,0-1.78,5,5.49,5.49,0,0,0,1.49,4.9c1.42,1.23,5.45,1.14,8.23.1,3.89-1.44,13.37-7.8,17.21-11.57"/><path class="cls-1" d="M144.87,34.1c1.14-1.49,3.32-1.83,4.36.08,1.33,2.43-1.49,5.41-3.54,7.85a21.41,21.41,0,0,1-5.17,4.29C139.13,43,136.06,36,139.11,34.65c2.13-.94,3.65.7,4.17,3.2A9.25,9.25,0,0,1,144.87,34.1Z"/></g></g></svg>